#!OML:ASF E:/inclinewalkrobotboard/Project1/Captureday1/Session1/subject1.ASF
:FULLY-SPECIFIED
:DEGREES
76
root 0 0 0 -1.7210691488374952 -2.9300538501718623 -3.606607803467499
lowerback 10.04053217921945 1.0347873435706045 1.5058203358780062
upperback 0.06160263446869202 1.6151878431517965 1.2408067905355118
thorax -5.5165468154580894 0.7607716379787439 0.20766972236546288
lowerneck -14.106577158960553 -2.9409946245724155 -1.0661522428522012
upperneck 16.566343903379906 -3.982598555925718 1.3739973346371612
head 7.6782637136168645 -1.8717816118788206 0.2144232937510875
rclavicle -1.8541137547244077E-16 -8.932943613663628E-17
rhumerus -19.76757604902078 -7.423574356445165 -67.52321496170877
rradius 60.18361367627225
rwrist -7.968561022428818
rhand -13.407216653822918 -8.552530667984385
rfingers 7.125019999999866
rthumb 12.725633752010687 -37.79875045950757
lclavicle -8.150661434752805E-16 -3.8710015443359766E-16
lhumerus -39.67316427490173 0.2567597887513303 83.2884845425983
lradius 38.33562154365444
lwrist 2.674791988314727
lhand -19.377363425364386 0.6815770675509718
lfingers 7.125019999999878
lthumb 6.840053975195056 30.189047097574402
rfemur -9.075387686623376 2.035051562961878 14.16996385566898
rtibia 27.765963411265076
rfoot -1.4187942776975948 -3.2780099893474546
rtoes 3.359725632571373
lfemur 0.5352028659040249 -4.237646696779068 -20.032886435380796
ltibia 19.02245277484308
lfoot -18.52132036935026 4.706557021749729
ltoes -23.77799270169997
77
root 0 0 0 -2.0109732363530255 -0.7129147870593537 0.00430007540453925
lowerback 10.05976319833524 -0.43986751806948465 -2.2952659167013167
upperback 0.2078640675424805 -0.7861925383474526 1.1952945349689286
thorax -5.396172606968325 -0.33703369603412414 2.645119960332833
lowerneck -14.320454694686608 -2.5707846014645335 -1.4096157684815436
upperneck 16.928658093204852 -3.322054080129211 1.1042618307339536
head 7.807136069631535 -1.6090433967165048 0.2501784981710553
rclavicle -2.0350659227805675E-16 -1.0062483847965328E-16
rhumerus -19.967242727567033 -7.655730553175219 -67.73803361323803
rradius 59.49241260473039
rwrist -7.718546660997117
rhand -13.503007019119089 -7.885926178664846
rfingers 7.12501999999987
rthumb 12.63242062640584 -37.1433883771997
lclavicle -7.649379410414219E-16 -3.653733276268165E-16
lhumerus -39.36365383609777 0.21218722422728137 83.26433459989563
lradius 37.97964107853644
lwrist 2.8112995668050598
lhand -19.677133779651093 1.5920360714986153
lfingers 7.125019999999883
lthumb 6.557432296350671 31.109792944579446
rfemur -9.832386169326234 1.779344301433816 13.673030052243476
rtibia 28.763256332054347
rfoot -0.6487958241190337 -3.269804691253187
rtoes 3.639399458136927
lfemur 1.3058461850593384 -4.239865079026613 -20.664779834553034
ltibia 18.723284301351363
lfoot -18.3704335569457 4.33799548700946
ltoes -22.52426190168799
78
root 0 0 0 -2.1477161819716866 -0.3527365387425152 0.6914949404880644
lowerback 10.11161779690905 -0.7253972098669599 -2.926756825342631
upperback 0.2677181305093121 -1.2417694441983156 1.2338275533199827
thorax -5.348861649100378 -0.5438729308590736 3.106268628855436
lowerneck -14.648191339037364 -2.528125692387121 -1.5662540245041865
upperneck 17.27837629195155 -3.2116768432721465 0.9924013142643844
head 7.977103570364433 -1.5696114462287956 0.24223083748045396
rclavicle -1.9750010619907132E-16 -1.0581438666040998E-16
rhumerus -19.968237239541807 -7.644536716942148 -67.72209135205829
rradius 59.54412123587927
rwrist -7.724558540458537
rhand -13.493629646890174 -7.939122775279838
rfingers 7.125019999999869
rthumb 12.641281394973214 -37.1979569602457
lclavicle -7.436464000032935E-16 -3.7013867945578195E-16
lhumerus -39.360644252753076 0.1929911020760077 83.26707187676159
lradius 38.0232306775937
lwrist 2.81471012785549
lhand -19.66361601990847 1.5457823557806911
lfingers 7.125019999999882
lthumb 6.570846010492554 31.062806174044127
rfemur -10.168177066954328 1.6512419175320003 13.473447023232428
rtibia 29.42616574631647
rfoot -0.1965842274647942 -3.2354024489534736
rtoes 3.8846432994717923
lfemur 1.1598284494079003 -4.103819387583037 -20.793271971027643
ltibia 19.510088460994346
lfoot -17.80008196672566 3.849630262294241
ltoes -21.52422358295417
79
root 0 0 0 -2.2179128472858816 -0.29849595223073067 0.8406443113869169
lowerback 10.146445519110435 -0.7953303548822472 -3.02206298455702
upperback 0.29859746120009206 -1.3474887328784089 1.2679915467900271
thorax -5.326684688551812 -0.5906875373344639 3.2098565385404054
lowerneck -14.864456364172991 -2.530294927168773 -1.6451287440023632
upperneck 17.523209171117223 -3.1905480575556924 0.9328337079204789
head 8.084958886471862 -1.5649646151552712 0.23147517434284914
rclavicle -1.868378012977786E-16 -1.0288904190534423E-16
rhumerus -19.88931476155098 -7.546040750559592 -67.62254377843472
rradius 59.85206911895486
rwrist -7.8281287760179
rhand -13.448654303893484 -8.240560019074046
rfingers 7.125019999999868
rthumb 12.684514017720437 -37.49264638441541
lclavicle -7.352693332158934E-16 -3.694957612739123E-16
lhumerus -39.38947939451316 0.18236116484950815 83.27027003452044
lradius 38.091024563887686
lwrist 2.805334038233294
lhand -19.62578068734028 1.4269680478652802
lfingers 7.125019999999881
lthumb 6.607159965514185 30.940733007219595
rfemur -10.488283126547973 1.6829643541966168 13.795641441023609
rtibia 30.22795671374643
rfoot -0.15525954398447817 -3.3189178286490724
rtoes 4.091594286476096
lfemur 0.3443469230589171 -3.848673466006452 -20.618894960642493
ltibia 21.171556412653345
lfoot -16.79692848074599 3.1642168810346805
ltoes -20.39918359711212
80
root 0 0 0 -2.2637530756981645 -0.30753754626969143 0.864675856530503
lowerback 10.167813496440257 -0.8161606735140465 -3.003959204030506
upperback 0.3183577028286168 -1.3741750871233918 1.2964003450586215
thorax -5.312878585833978 -0.6017666162430327 3.2326254619180474
lowerneck -15.022961890790151 -2.5381316923665187 -1.6944195884045217
upperneck 17.714305136178456 -3.1855600116145584 0.8901105061642491
head 8.162228312629448 -1.566384829663731 0.22107470042157265
rclavicle -1.8132386579774156E-16 -1.0080979302703674E-16
rhumerus -19.834300722897446 -7.4835264679692886 -67.55619962630271
rradius 60.051276673101256
rwrist -7.897784818819556
rhand -13.42061883407348 -8.430122157851473
rfingers 7.125019999999866
rthumb 12.711387732970229 -37.67757968006339
lclavicle -7.325213825818721E-16 -3.661258580514294E-16
lhumerus -39.336025645837076 0.1773752856104608 83.26444373967419
lradius 38.02254570168776
lwrist 2.8297234793525456
lhand -19.681640713025114 1.5966806364926196
lfingers 7.125019999999882
lthumb 6.554364338822937 31.1130926544458
rfemur -10.805735692831446 1.7976555543647128 14.408583333833427
rtibia 31.150802618455543
rfoot -0.32882933417990556 -3.4673135725331465
rtoes 4.277942289874803
lfemur -0.923205593963667 -3.550615069254093 -20.19914051321022
ltibia 23.19782916911439
lfoot -15.640013294364525 2.4803398766775313
ltoes -19.40701659828644
81
root 0 0 0 -2.3037162688126283 -0.3851870980351475 0.7713680681839539
lowerback 10.18452384634829 -0.7951835153329516 -2.864489507152032
upperback 0.335524177485703 -1.3305812993232893 1.329510240404201
thorax -5.300230680454218 -0.5810054404561366 3.182830585301102
lowerneck -15.1818625831858 -2.5541385958414153 -1.7324238452976366
upperneck 17.92015267693172 -3.194255195591472 0.847506460186068
head 8.23808996877339 -1.5741283715358594 0.20699073820767036
rclavicle -1.8477652806145203E-16 -9.706774861099892E-17
rhumerus -19.83775873348158 -7.494521343375036 -67.5629165776006
rradius 60.02153745752372
rwrist -7.890351813632168
rhand -13.425396303731707 -8.39724839859031
rfingers 7.125019999999867
rthumb 12.706643939461536 -37.64389218888188
lclavicle -7.256990626188019E-16 -3.5690388252774723E-16
lhumerus -39.12959968321613 0.16423454846253757 83.2447698004113
lradius 37.74374540412313
lwrist 2.9204917946539073
lhand -19.898474947804104 2.256708113713046
lfingers 7.1250199999998864
lthumb 6.3489027787573065 31.783498042960225
rfemur -11.10000852936087 2.1438312342853796 15.687345044203884
rtibia 31.976247708515068
rfoot -1.1703817593509243 -3.803392028824956
rtoes 4.287315961526954
lfemur -3.751750868328187 -3.0155343548162645 -19.076023435345903
ltibia 26.969679177058403
lfoot -13.585116083194627 1.4613278506344596
ltoes -18.148879870932905
